<?xml version="1.0" encoding="iso-8859-1"?>
<!-- Generator: Adobe Illustrator 18.0.0, SVG Export Plug-In . SVG Version: 6.00 Build 0)  -->
<!DOCTYPE svg PUBLIC "-//W3C//DTD SVG 1.1//EN" "http://www.w3.org/Graphics/SVG/1.1/DTD/svg11.dtd">
<svg version="1.1" id="Capa_1" xmlns="http://www.w3.org/2000/svg" xmlns:xlink="http://www.w3.org/1999/xlink" x="0px" y="0px"
	 viewBox="0 0 251.882 251.882" style="enable-background:new 0 0 251.882 251.882;" xml:space="preserve">
<g>
	<path d="M132.305,52.577c-3.515-3.514-9.213-3.514-12.728,0L77.159,94.995c-2.574,2.574-3.344,6.445-1.951,9.809
		s4.675,5.556,8.315,5.556h84.836c3.64,0,6.922-2.192,8.315-5.556s0.623-7.234-1.951-9.809L132.305,52.577z M105.251,92.359
		l20.69-20.69l20.69,20.69H105.251z"/>
	<path d="M168.359,141.523H83.523c-3.64,0-6.922,2.192-8.315,5.556s-0.623,7.234,1.951,9.809l42.418,42.418
		c1.757,1.757,4.061,2.636,6.364,2.636s4.606-0.879,6.364-2.636l42.418-42.418c2.574-2.574,3.344-6.445,1.951-9.809
		S171.999,141.523,168.359,141.523z M125.941,180.213l-20.69-20.69h41.38L125.941,180.213z"/>
	<path d="M215.036,36.845c-49.127-49.127-129.063-49.127-178.19,0c-49.127,49.128-49.127,129.063,0,178.191
		c24.563,24.563,56.83,36.846,89.095,36.846s64.532-12.282,89.095-36.846C264.164,165.909,264.164,85.973,215.036,36.845z
		 M202.309,202.308c-42.109,42.109-110.626,42.109-152.735,0C7.465,160.2,7.465,91.682,49.573,49.574
		c21.055-21.055,48.711-31.582,76.368-31.582s55.313,10.527,76.368,31.582C244.418,91.682,244.418,160.2,202.309,202.308z"/>
</g>
<g>
</g>
<g>
</g>
<g>
</g>
<g>
</g>
<g>
</g>
<g>
</g>
<g>
</g>
<g>
</g>
<g>
</g>
<g>
</g>
<g>
</g>
<g>
</g>
<g>
</g>
<g>
</g>
<g>
</g>
</svg>
